<svg width="55" height="55" viewBox="0 0 98 85" fill="none" xmlns="http://www.w3.org/2000/svg">
<path d="M74.491 9.70265L75.3479 9.36388C74.7834 9.21577 73.9891 9.07206 72.9901 8.95211C70.8972 8.70083 67.9559 8.55971 64.46 8.6827C57.4674 8.92872 48.2934 10.2301 39.2886 13.7901C30.2842 17.3498 22.9348 22.5805 17.9067 27.0855C15.3928 29.3379 13.4658 31.4029 12.2064 32.9786C11.6022 33.7345 11.1588 34.3688 10.8781 34.8511L11.6775 34.5351L18.6521 31.7777L42.2949 22.4309L66.9251 12.6937L74.491 9.70265Z" fill="white" stroke="white"/>
<path d="M13.376 38.2099L12.519 38.5487C13.0835 38.6968 13.8778 38.8405 14.8768 38.9604C16.9698 39.2117 19.911 39.3528 23.4069 39.2298C30.3995 38.9838 39.5735 37.6824 48.5783 34.1225C57.5827 30.5627 64.9321 25.3321 69.9602 20.827C72.4741 18.5747 74.4011 16.5096 75.6605 14.934C76.2647 14.1781 76.7081 13.5438 76.9888 13.0614L76.1894 13.3775L69.2148 16.1348L45.572 25.4816L20.9418 35.2189L13.376 38.2099Z" fill="white" stroke="white"/>
<path d="M82.5018 29.6995C82.6339 26.1773 82.2647 22.6659 81.411 19.2675C81.3146 19.3671 81.216 19.4685 81.1153 19.5715C79.0155 21.7207 75.9747 24.6299 72.1964 27.6854C64.6798 33.7639 54.0556 40.5753 41.9831 42.9529C30.329 45.248 21.4667 45.8603 15.478 45.8913C12.4841 45.9067 10.2098 45.7769 8.66541 45.6398C8.48951 45.6242 8.32308 45.6085 8.16615 45.5929C7.86728 46.4709 7.57238 47.6756 7.3631 49.1303C7.02545 51.4774 6.96933 54.0679 7.30917 56.2033C7.67733 58.5166 8.38183 59.5407 8.85375 59.8251C9.01628 59.923 9.9584 60.402 12.62 58.475C15.6089 56.3111 18.0895 55.0565 20.2551 54.869C21.4206 54.7681 22.5092 54.9745 23.4754 55.5071C24.4107 56.0227 25.068 56.754 25.5437 57.4454C26.0112 58.1249 26.3686 58.8644 26.6535 59.4902C26.7678 59.7413 26.8675 59.9667 26.9611 60.1783C27.1283 60.5563 27.276 60.8903 27.4529 61.2487C27.9915 62.3396 28.388 62.7387 28.7557 62.9027C29.3067 63.1485 30.0913 63.2059 31.326 63.0287C31.9089 62.945 32.5041 62.8243 33.1729 62.6886L33.2393 62.6752C33.9029 62.5406 34.6559 62.3888 35.3945 62.2964C36.7907 62.1218 38.7904 62.0602 40.4747 63.3474C42.1792 64.6501 42.8797 66.7962 43.0783 69.3026C43.1458 70.155 43.332 70.4692 43.3801 70.5348C43.3801 70.5349 43.3799 70.5351 43.3796 70.5353C43.3767 70.5374 43.3648 70.5459 43.4645 70.5643C43.9634 70.6562 45.0912 70.4582 46.9842 69.5899C48.7425 68.7833 50.6575 67.6465 52.5581 66.5183L52.565 66.5142L52.683 66.4441C54.4365 65.403 56.3176 64.2861 57.7864 63.734C62.4614 61.9763 66.748 59.3266 70.4015 55.937C74.055 52.5475 77.0031 48.4851 79.0788 43.9829C81.1544 39.4809 82.3169 34.6273 82.5018 29.6995Z" stroke="white" stroke-width="5"/>
</svg>
