<svg width="975" height="917" viewBox="0 0 975 917" fill="none" xmlns="http://www.w3.org/2000/svg">
<path d="M607.79 49L597.938 14.0909H604.739L611.028 39.7443H611.352L618.068 14.0909H624.256L630.989 39.7614H631.295L637.585 14.0909H644.386L634.534 49H628.295L621.307 24.5057H621.034L614.028 49H607.79ZM648.499 49V22.8182H654.669V49H648.499ZM651.601 19.1023C650.624 19.1023 649.783 18.7784 649.078 18.1307C648.374 17.4716 648.021 16.6818 648.021 15.7614C648.021 14.8295 648.374 14.0398 649.078 13.392C649.783 12.733 650.624 12.4034 651.601 12.4034C652.589 12.4034 653.43 12.733 654.124 13.392C654.828 14.0398 655.18 14.8295 655.18 15.7614C655.18 16.6818 654.828 17.4716 654.124 18.1307C653.43 18.7784 652.589 19.1023 651.601 19.1023ZM674.088 22.8182V27.5909H659.037V22.8182H674.088ZM662.753 16.5455H668.923V41.125C668.923 41.9545 669.048 42.5909 669.298 43.0341C669.56 43.4659 669.901 43.7614 670.321 43.9205C670.741 44.0795 671.207 44.1591 671.719 44.1591C672.105 44.1591 672.457 44.1307 672.776 44.0739C673.105 44.017 673.355 43.9659 673.526 43.9205L674.565 48.7443C674.236 48.858 673.764 48.983 673.151 49.1193C672.548 49.2557 671.81 49.3352 670.935 49.358C669.389 49.4034 667.997 49.1705 666.759 48.6591C665.52 48.1364 664.537 47.3295 663.81 46.2386C663.094 45.1477 662.741 43.7841 662.753 42.1477V16.5455ZM685.982 33.6591V49H679.811V14.0909H685.845V27.267H686.152C686.766 25.7898 687.714 24.625 688.999 23.7727C690.294 22.9091 691.942 22.4773 693.942 22.4773C695.76 22.4773 697.345 22.858 698.697 23.6193C700.05 24.3807 701.095 25.4943 701.834 26.9602C702.584 28.4261 702.959 30.2159 702.959 32.3295V49H696.788V33.2841C696.788 31.5227 696.334 30.1534 695.425 29.1761C694.527 28.1875 693.266 27.6932 691.641 27.6932C690.55 27.6932 689.572 27.9318 688.709 28.4091C687.857 28.875 687.186 29.5511 686.697 30.4375C686.22 31.3239 685.982 32.3977 685.982 33.6591ZM720.669 49.5114C718.112 49.5114 715.896 48.9489 714.021 47.8239C712.146 46.6989 710.692 45.125 709.658 43.1023C708.635 41.0795 708.124 38.7159 708.124 36.0114C708.124 33.3068 708.635 30.9375 709.658 28.9034C710.692 26.8693 712.146 25.2898 714.021 24.1648C715.896 23.0398 718.112 22.4773 720.669 22.4773C723.226 22.4773 725.442 23.0398 727.317 24.1648C729.192 25.2898 730.641 26.8693 731.663 28.9034C732.697 30.9375 733.214 33.3068 733.214 36.0114C733.214 38.7159 732.697 41.0795 731.663 43.1023C730.641 45.125 729.192 46.6989 727.317 47.8239C725.442 48.9489 723.226 49.5114 720.669 49.5114ZM720.703 44.5682C722.089 44.5682 723.249 44.1875 724.18 43.4261C725.112 42.6534 725.805 41.6193 726.26 40.3239C726.726 39.0284 726.959 37.5852 726.959 35.9943C726.959 34.392 726.726 32.9432 726.26 31.6477C725.805 30.3409 725.112 29.3011 724.18 28.5284C723.249 27.7557 722.089 27.3693 720.703 27.3693C719.283 27.3693 718.101 27.7557 717.158 28.5284C716.226 29.3011 715.527 30.3409 715.061 31.6477C714.607 32.9432 714.379 34.392 714.379 35.9943C714.379 37.5852 714.607 39.0284 715.061 40.3239C715.527 41.6193 716.226 42.6534 717.158 43.4261C718.101 44.1875 719.283 44.5682 720.703 44.5682ZM755.139 37.9886V22.8182H761.31V49H755.327V44.3466H755.054C754.463 45.8125 753.491 47.0114 752.139 47.9432C750.798 48.875 749.145 49.3409 747.179 49.3409C745.463 49.3409 743.946 48.9602 742.628 48.1989C741.321 47.4261 740.298 46.3068 739.56 44.8409C738.821 43.3636 738.452 41.5795 738.452 39.4886V22.8182H744.622V38.5341C744.622 40.1932 745.077 41.5114 745.986 42.4886C746.895 43.4659 748.088 43.9545 749.565 43.9545C750.474 43.9545 751.355 43.733 752.207 43.2898C753.06 42.8466 753.759 42.1875 754.304 41.3125C754.861 40.4261 755.139 39.3182 755.139 37.9886ZM780.729 22.8182V27.5909H765.678V22.8182H780.729ZM769.393 16.5455H775.564V41.125C775.564 41.9545 775.689 42.5909 775.939 43.0341C776.2 43.4659 776.541 43.7614 776.962 43.9205C777.382 44.0795 777.848 44.1591 778.359 44.1591C778.746 44.1591 779.098 44.1307 779.416 44.0739C779.746 44.017 779.996 43.9659 780.166 43.9205L781.206 48.7443C780.876 48.858 780.405 48.983 779.791 49.1193C779.189 49.2557 778.45 49.3352 777.575 49.358C776.03 49.4034 774.638 49.1705 773.399 48.6591C772.161 48.1364 771.178 47.3295 770.45 46.2386C769.734 45.1477 769.382 43.7841 769.393 42.1477V16.5455ZM817.04 23.6875C816.881 22.1989 816.21 21.0398 815.028 20.2102C813.858 19.3807 812.335 18.9659 810.46 18.9659C809.142 18.9659 808.011 19.1648 807.068 19.5625C806.125 19.9602 805.403 20.5 804.903 21.1818C804.403 21.8636 804.148 22.642 804.136 23.517C804.136 24.2443 804.301 24.875 804.631 25.4091C804.972 25.9432 805.432 26.3977 806.011 26.7727C806.591 27.1364 807.233 27.4432 807.938 27.6932C808.642 27.9432 809.352 28.1534 810.068 28.3239L813.341 29.142C814.659 29.4489 815.926 29.8636 817.142 30.3864C818.369 30.9091 819.466 31.5682 820.432 32.3636C821.409 33.1591 822.182 34.1193 822.75 35.2443C823.318 36.3693 823.602 37.6875 823.602 39.1989C823.602 41.2443 823.08 43.0455 822.034 44.6023C820.989 46.1477 819.477 47.358 817.5 48.233C815.534 49.0966 813.153 49.5284 810.358 49.5284C807.642 49.5284 805.284 49.108 803.284 48.267C801.295 47.4261 799.739 46.1989 798.614 44.5852C797.5 42.9716 796.898 41.0057 796.807 38.6875H803.028C803.119 39.9034 803.494 40.9148 804.153 41.7216C804.813 42.5284 805.67 43.1307 806.727 43.5284C807.795 43.9261 808.989 44.125 810.307 44.125C811.682 44.125 812.886 43.9205 813.92 43.5114C814.966 43.0909 815.784 42.5114 816.375 41.7727C816.966 41.0227 817.267 40.1477 817.278 39.1477C817.267 38.2386 817 37.4886 816.477 36.8977C815.955 36.2955 815.222 35.7955 814.278 35.3977C813.347 34.9886 812.256 34.625 811.006 34.3068L807.034 33.2841C804.159 32.5455 801.886 31.4261 800.216 29.9261C798.557 28.4148 797.727 26.4091 797.727 23.9091C797.727 21.8523 798.284 20.0511 799.398 18.5057C800.523 16.9602 802.051 15.7614 803.983 14.9091C805.915 14.0455 808.102 13.6136 810.545 13.6136C813.023 13.6136 815.193 14.0455 817.057 14.9091C818.932 15.7614 820.403 16.9489 821.472 18.4716C822.54 19.983 823.091 21.7216 823.125 23.6875H817.04ZM845.655 37.9886V22.8182H851.825V49H845.842V44.3466H845.57C844.979 45.8125 844.007 47.0114 842.655 47.9432C841.314 48.875 839.661 49.3409 837.695 49.3409C835.979 49.3409 834.462 48.9602 833.143 48.1989C831.837 47.4261 830.814 46.3068 830.075 44.8409C829.337 43.3636 828.967 41.5795 828.967 39.4886V22.8182H835.138V38.5341C835.138 40.1932 835.592 41.5114 836.501 42.4886C837.411 43.4659 838.604 43.9545 840.081 43.9545C840.99 43.9545 841.871 43.733 842.723 43.2898C843.575 42.8466 844.274 42.1875 844.82 41.3125C845.376 40.4261 845.655 39.3182 845.655 37.9886ZM858.17 49V22.8182H864.153V27.1818H864.426C864.903 25.6705 865.722 24.5057 866.881 23.6875C868.051 22.858 869.386 22.4432 870.886 22.4432C871.227 22.4432 871.608 22.4602 872.028 22.4943C872.46 22.517 872.818 22.5568 873.102 22.6136V28.2898C872.841 28.1989 872.426 28.1193 871.858 28.0511C871.301 27.9716 870.761 27.9318 870.239 27.9318C869.114 27.9318 868.102 28.1761 867.205 28.6648C866.318 29.142 865.619 29.8068 865.108 30.6591C864.597 31.5114 864.341 32.4943 864.341 33.608V49H858.17ZM891.869 22.8182V27.5909H876.392V22.8182H891.869ZM880.261 49V20.3466C880.261 18.5852 880.625 17.1193 881.352 15.9489C882.091 14.7784 883.08 13.9034 884.318 13.3239C885.557 12.7443 886.932 12.4545 888.443 12.4545C889.511 12.4545 890.46 12.5398 891.29 12.7102C892.119 12.8807 892.733 13.0341 893.131 13.1705L891.903 17.9432C891.642 17.8636 891.312 17.7841 890.915 17.7045C890.517 17.6136 890.074 17.5682 889.585 17.5682C888.438 17.5682 887.625 17.8466 887.148 18.4034C886.682 18.9489 886.449 19.733 886.449 20.7557V49H880.261Z" fill="#AEAEAE"/>
<path d="M684.79 492L674.938 457.091H681.739L688.028 482.744H688.352L695.068 457.091H701.256L707.989 482.761H708.295L714.585 457.091H721.386L711.534 492H705.295L698.307 467.506H698.034L691.028 492H684.79ZM725.499 492V465.818H731.669V492H725.499ZM728.601 462.102C727.624 462.102 726.783 461.778 726.078 461.131C725.374 460.472 725.021 459.682 725.021 458.761C725.021 457.83 725.374 457.04 726.078 456.392C726.783 455.733 727.624 455.403 728.601 455.403C729.589 455.403 730.43 455.733 731.124 456.392C731.828 457.04 732.18 457.83 732.18 458.761C732.18 459.682 731.828 460.472 731.124 461.131C730.43 461.778 729.589 462.102 728.601 462.102ZM751.088 465.818V470.591H736.037V465.818H751.088ZM739.753 459.545H745.923V484.125C745.923 484.955 746.048 485.591 746.298 486.034C746.56 486.466 746.901 486.761 747.321 486.92C747.741 487.08 748.207 487.159 748.719 487.159C749.105 487.159 749.457 487.131 749.776 487.074C750.105 487.017 750.355 486.966 750.526 486.92L751.565 491.744C751.236 491.858 750.764 491.983 750.151 492.119C749.548 492.256 748.81 492.335 747.935 492.358C746.389 492.403 744.997 492.17 743.759 491.659C742.52 491.136 741.537 490.33 740.81 489.239C740.094 488.148 739.741 486.784 739.753 485.148V459.545ZM762.982 476.659V492H756.811V457.091H762.845V470.267H763.152C763.766 468.79 764.714 467.625 765.999 466.773C767.294 465.909 768.942 465.477 770.942 465.477C772.76 465.477 774.345 465.858 775.697 466.619C777.05 467.381 778.095 468.494 778.834 469.96C779.584 471.426 779.959 473.216 779.959 475.33V492H773.788V476.284C773.788 474.523 773.334 473.153 772.425 472.176C771.527 471.187 770.266 470.693 768.641 470.693C767.55 470.693 766.572 470.932 765.709 471.409C764.857 471.875 764.186 472.551 763.697 473.438C763.22 474.324 762.982 475.398 762.982 476.659ZM817.399 466.688C817.24 465.199 816.57 464.04 815.388 463.21C814.217 462.381 812.695 461.966 810.82 461.966C809.501 461.966 808.371 462.165 807.428 462.562C806.484 462.96 805.763 463.5 805.263 464.182C804.763 464.864 804.507 465.642 804.496 466.517C804.496 467.244 804.661 467.875 804.99 468.409C805.331 468.943 805.791 469.398 806.371 469.773C806.95 470.136 807.592 470.443 808.297 470.693C809.001 470.943 809.712 471.153 810.428 471.324L813.7 472.142C815.018 472.449 816.286 472.864 817.501 473.386C818.729 473.909 819.825 474.568 820.791 475.364C821.768 476.159 822.541 477.119 823.109 478.244C823.678 479.369 823.962 480.687 823.962 482.199C823.962 484.244 823.439 486.045 822.393 487.602C821.348 489.148 819.837 490.358 817.859 491.233C815.893 492.097 813.513 492.528 810.717 492.528C808.001 492.528 805.643 492.108 803.643 491.267C801.655 490.426 800.098 489.199 798.973 487.585C797.859 485.972 797.257 484.006 797.166 481.688H803.388C803.479 482.903 803.854 483.915 804.513 484.722C805.172 485.528 806.03 486.131 807.087 486.528C808.155 486.926 809.348 487.125 810.666 487.125C812.041 487.125 813.246 486.92 814.28 486.511C815.325 486.091 816.143 485.511 816.734 484.773C817.325 484.023 817.626 483.148 817.638 482.148C817.626 481.239 817.359 480.489 816.837 479.898C816.314 479.295 815.581 478.795 814.638 478.398C813.706 477.989 812.615 477.625 811.365 477.307L807.393 476.284C804.518 475.545 802.246 474.426 800.575 472.926C798.916 471.415 798.087 469.409 798.087 466.909C798.087 464.852 798.643 463.051 799.757 461.506C800.882 459.96 802.411 458.761 804.342 457.909C806.274 457.045 808.462 456.614 810.905 456.614C813.382 456.614 815.553 457.045 817.416 457.909C819.291 458.761 820.763 459.949 821.831 461.472C822.899 462.983 823.45 464.722 823.484 466.688H817.399ZM846.014 480.989V465.818H852.185V492H846.202V487.347H845.929C845.338 488.812 844.366 490.011 843.014 490.943C841.673 491.875 840.02 492.341 838.054 492.341C836.338 492.341 834.821 491.96 833.503 491.199C832.196 490.426 831.173 489.307 830.435 487.841C829.696 486.364 829.327 484.58 829.327 482.489V465.818H835.497V481.534C835.497 483.193 835.952 484.511 836.861 485.489C837.77 486.466 838.963 486.955 840.44 486.955C841.349 486.955 842.23 486.733 843.082 486.29C843.935 485.847 844.634 485.188 845.179 484.312C845.736 483.426 846.014 482.318 846.014 480.989ZM858.53 492V465.818H864.513V470.182H864.786C865.263 468.67 866.081 467.506 867.24 466.688C868.411 465.858 869.746 465.443 871.246 465.443C871.587 465.443 871.967 465.46 872.388 465.494C872.82 465.517 873.178 465.557 873.462 465.614V471.29C873.2 471.199 872.786 471.119 872.217 471.051C871.661 470.972 871.121 470.932 870.598 470.932C869.473 470.932 868.462 471.176 867.564 471.665C866.678 472.142 865.979 472.807 865.467 473.659C864.956 474.511 864.7 475.494 864.7 476.608V492H858.53ZM892.229 465.818V470.591H876.751V465.818H892.229ZM880.621 492V463.347C880.621 461.585 880.984 460.119 881.712 458.949C882.45 457.778 883.439 456.903 884.678 456.324C885.916 455.744 887.291 455.455 888.803 455.455C889.871 455.455 890.82 455.54 891.649 455.71C892.479 455.881 893.092 456.034 893.49 456.17L892.263 460.943C892.001 460.864 891.672 460.784 891.274 460.705C890.876 460.614 890.433 460.568 889.945 460.568C888.797 460.568 887.984 460.847 887.507 461.403C887.041 461.949 886.808 462.733 886.808 463.756V492H880.621Z" fill="url(#paint0_linear_9_88)"/>
<path d="M1.90909 19.392V14.0909H29.7614V19.392H18.9716V49H12.6989V19.392H1.90909ZM34.858 49V22.8182H41.0284V49H34.858ZM37.9602 19.1023C36.983 19.1023 36.142 18.7784 35.4375 18.1307C34.733 17.4716 34.3807 16.6818 34.3807 15.7614C34.3807 14.8295 34.733 14.0398 35.4375 13.392C36.142 12.733 36.983 12.4034 37.9602 12.4034C38.9489 12.4034 39.7898 12.733 40.483 13.392C41.1875 14.0398 41.5398 14.8295 41.5398 15.7614C41.5398 16.6818 41.1875 17.4716 40.483 18.1307C39.7898 18.7784 38.9489 19.1023 37.9602 19.1023ZM47.3736 49V22.8182H53.2713V27.267H53.5781C54.1236 25.767 55.027 24.5966 56.2884 23.7557C57.5497 22.9034 59.0554 22.4773 60.8054 22.4773C62.5781 22.4773 64.0724 22.9091 65.2884 23.7727C66.5156 24.625 67.3793 25.7898 67.8793 27.267H68.152C68.7315 25.8125 69.7088 24.6534 71.0838 23.7898C72.4702 22.9148 74.1122 22.4773 76.0099 22.4773C78.419 22.4773 80.3849 23.2386 81.9077 24.7614C83.4304 26.2841 84.1918 28.5057 84.1918 31.4261V49H78.0043V32.3807C78.0043 30.7557 77.5724 29.5682 76.7088 28.8182C75.8452 28.0568 74.7884 27.6761 73.5384 27.6761C72.0497 27.6761 70.8849 28.142 70.044 29.0739C69.2145 29.9943 68.7997 31.1932 68.7997 32.6705V49H62.7486V32.125C62.7486 30.7727 62.3395 29.6932 61.5213 28.8864C60.7145 28.0795 59.6577 27.6761 58.3509 27.6761C57.4645 27.6761 56.6577 27.9034 55.9304 28.358C55.2031 28.8011 54.6236 29.4318 54.1918 30.25C53.7599 31.0568 53.544 32 53.544 33.0795V49H47.3736ZM102.043 49.5114C99.4176 49.5114 97.1506 48.9659 95.2415 47.875C93.3438 46.7727 91.8835 45.2159 90.8608 43.2045C89.8381 41.1818 89.3267 38.8011 89.3267 36.0625C89.3267 33.3693 89.8381 31.0057 90.8608 28.9716C91.8949 26.9261 93.3381 25.3352 95.1903 24.1989C97.0426 23.0511 99.2188 22.4773 101.719 22.4773C103.332 22.4773 104.855 22.7386 106.287 23.2614C107.73 23.7727 109.003 24.5682 110.105 25.6477C111.219 26.7273 112.094 28.1023 112.73 29.7727C113.366 31.4318 113.685 33.4091 113.685 35.7045V37.5966H92.2244V33.4375H107.77C107.759 32.2557 107.503 31.2045 107.003 30.2841C106.503 29.3523 105.804 28.6193 104.906 28.0852C104.02 27.5511 102.986 27.2841 101.804 27.2841C100.543 27.2841 99.4347 27.5909 98.4801 28.2045C97.5256 28.8068 96.7813 29.6023 96.2472 30.5909C95.7244 31.5682 95.4574 32.642 95.446 33.8125V37.4432C95.446 38.9659 95.7244 40.2727 96.2812 41.3636C96.8381 42.4432 97.6165 43.2727 98.6165 43.8523C99.6165 44.4205 100.787 44.7045 102.128 44.7045C103.026 44.7045 103.838 44.5795 104.565 44.3295C105.293 44.0682 105.923 43.6875 106.457 43.1875C106.991 42.6875 107.395 42.0682 107.668 41.3295L113.429 41.9773C113.065 43.5 112.372 44.8295 111.349 45.9659C110.338 47.0909 109.043 47.9659 107.463 48.5909C105.884 49.2045 104.077 49.5114 102.043 49.5114Z" fill="#0D6EFD"/>
<path d="M853.114 870.091L862.199 897.568H862.557L871.625 870.091H878.58L866.273 905H858.466L846.176 870.091H853.114ZM887.72 905.528C886.061 905.528 884.567 905.233 883.237 904.642C881.919 904.04 880.874 903.153 880.101 901.983C879.339 900.812 878.959 899.369 878.959 897.653C878.959 896.176 879.232 894.955 879.777 893.989C880.322 893.023 881.067 892.25 882.01 891.67C882.953 891.091 884.016 890.653 885.197 890.358C886.391 890.051 887.624 889.83 888.896 889.693C890.43 889.534 891.675 889.392 892.629 889.267C893.584 889.131 894.277 888.926 894.709 888.653C895.152 888.369 895.374 887.932 895.374 887.341V887.239C895.374 885.955 894.993 884.96 894.232 884.256C893.47 883.551 892.374 883.199 890.942 883.199C889.43 883.199 888.232 883.528 887.345 884.188C886.47 884.847 885.879 885.625 885.572 886.523L879.811 885.705C880.266 884.114 881.016 882.784 882.061 881.716C883.107 880.636 884.385 879.83 885.896 879.295C887.408 878.75 889.078 878.477 890.908 878.477C892.169 878.477 893.425 878.625 894.675 878.92C895.925 879.216 897.067 879.705 898.101 880.386C899.135 881.057 899.964 881.972 900.589 883.131C901.226 884.29 901.544 885.739 901.544 887.477V905H895.612V901.403H895.408C895.033 902.131 894.504 902.812 893.822 903.449C893.152 904.074 892.305 904.58 891.283 904.966C890.271 905.341 889.084 905.528 887.72 905.528ZM889.322 900.994C890.561 900.994 891.635 900.75 892.544 900.261C893.453 899.761 894.152 899.102 894.641 898.284C895.141 897.466 895.391 896.574 895.391 895.608V892.523C895.197 892.682 894.868 892.83 894.402 892.966C893.947 893.102 893.436 893.222 892.868 893.324C892.3 893.426 891.737 893.517 891.18 893.597C890.624 893.676 890.141 893.744 889.732 893.801C888.811 893.926 887.987 894.131 887.26 894.415C886.533 894.699 885.959 895.097 885.538 895.608C885.118 896.108 884.908 896.756 884.908 897.551C884.908 898.688 885.322 899.545 886.152 900.125C886.982 900.705 888.038 900.994 889.322 900.994ZM913.919 870.091V905H907.749V870.091H913.919ZM936.952 893.989V878.818H943.122V905H937.139V900.347H936.866C936.276 901.812 935.304 903.011 933.952 903.943C932.611 904.875 930.957 905.341 928.991 905.341C927.276 905.341 925.759 904.96 924.44 904.199C923.134 903.426 922.111 902.307 921.372 900.841C920.634 899.364 920.264 897.58 920.264 895.489V878.818H926.435V894.534C926.435 896.193 926.889 897.511 927.798 898.489C928.707 899.466 929.901 899.955 931.378 899.955C932.287 899.955 933.168 899.733 934.02 899.29C934.872 898.847 935.571 898.188 936.116 897.312C936.673 896.426 936.952 895.318 936.952 893.989ZM961.058 905.511C958.433 905.511 956.166 904.966 954.257 903.875C952.359 902.773 950.899 901.216 949.876 899.205C948.854 897.182 948.342 894.801 948.342 892.062C948.342 889.369 948.854 887.006 949.876 884.972C950.911 882.926 952.354 881.335 954.206 880.199C956.058 879.051 958.234 878.477 960.734 878.477C962.348 878.477 963.871 878.739 965.303 879.261C966.746 879.773 968.018 880.568 969.121 881.648C970.234 882.727 971.109 884.102 971.746 885.773C972.382 887.432 972.7 889.409 972.7 891.705V893.597H951.24V889.438H966.786C966.774 888.256 966.518 887.205 966.018 886.284C965.518 885.352 964.82 884.619 963.922 884.085C963.036 883.551 962.001 883.284 960.82 883.284C959.558 883.284 958.45 883.591 957.496 884.205C956.541 884.807 955.797 885.602 955.263 886.591C954.74 887.568 954.473 888.642 954.462 889.812V893.443C954.462 894.966 954.74 896.273 955.297 897.364C955.854 898.443 956.632 899.273 957.632 899.852C958.632 900.42 959.803 900.705 961.143 900.705C962.041 900.705 962.854 900.58 963.581 900.33C964.308 900.068 964.939 899.688 965.473 899.188C966.007 898.688 966.411 898.068 966.683 897.33L972.445 897.977C972.081 899.5 971.388 900.83 970.365 901.966C969.354 903.091 968.058 903.966 966.479 904.591C964.899 905.205 963.092 905.511 961.058 905.511Z" fill="#0D6EFD"/>
<g filter="url(#filter0_d_9_88)">
<path d="M915.746 89.63C916.664 88.8901 916.985 87.5755 916.464 86.6938L907.964 72.3252C907.443 71.4435 906.275 71.3286 905.357 72.0685C904.439 72.8084 904.117 74.123 904.639 75.0047L912.194 87.7768L898.893 98.4946C897.975 99.2345 897.653 100.549 898.175 101.431C898.696 102.313 899.864 102.428 900.782 101.688L915.746 89.63ZM152.073 842.276C211.19 749.173 264.825 653.146 317.865 562.217C370.934 471.24 423.422 385.341 480.342 312.258C537.254 239.186 598.524 179.026 669.123 139.445C739.695 99.8805 819.737 80.7967 914.293 90.1098L915.309 85.9573C820.102 76.5801 739.272 95.7881 667.894 135.805C596.544 175.806 534.785 236.518 477.619 309.915C420.462 383.302 367.822 469.471 314.742 560.467C261.634 651.511 208.099 747.364 149.055 840.353L152.073 842.276Z" fill="#AEAEAE"/>
</g>
<g filter="url(#filter1_d_9_88)">
<path d="M925.075 549.891C927.151 547.754 927.54 544.437 925.944 542.482L899.921 510.619C898.325 508.664 895.347 508.811 893.27 510.948C891.194 513.085 890.805 516.402 892.402 518.357L915.532 546.68L885.453 577.632C883.376 579.768 882.987 583.086 884.584 585.041C886.181 586.996 889.159 586.849 891.235 584.712L925.075 549.891ZM156.198 842.541C280.336 740.461 383.026 672.219 498.841 627.232C614.709 582.225 744.051 560.364 921.569 551.59L922.798 541.112C744.855 549.906 614.407 571.845 497.154 617.39C379.85 662.955 276.088 732.017 151.443 834.513L156.198 842.541Z" fill="url(#paint1_linear_9_88)"/>
</g>
<path d="M893 840C893 848.837 900.163 856 909 856C917.837 856 925 848.837 925 840C925 831.163 917.837 824 909 824C900.163 824 893 831.163 893 840ZM149 843H909V837H149V843Z" fill="#0D6EFD"/>
<path d="M151.066 0.871183C149.891 -0.296127 147.991 -0.289228 146.824 0.886592L127.801 20.0477C126.634 21.2235 126.641 23.123 127.817 24.2903C128.993 25.4576 130.892 25.4507 132.059 24.2749L148.968 7.24281L166 24.1516C167.176 25.3189 169.076 25.312 170.243 24.1362C171.41 22.9604 171.403 21.0609 170.227 19.8936L151.066 0.871183ZM155 841.989L151.953 2.9893L145.953 3.01109L149 842.011L155 841.989Z" fill="#0D6EFD"/>
<defs>
<filter id="filter0_d_9_88" x="145.055" y="71.5807" width="775.659" height="778.696" filterUnits="userSpaceOnUse" color-interpolation-filters="sRGB">
<feFlood flood-opacity="0" result="BackgroundImageFix"/>
<feColorMatrix in="SourceAlpha" type="matrix" values="0 0 0 0 0 0 0 0 0 0 0 0 0 0 0 0 0 0 127 0" result="hardAlpha"/>
<feOffset dy="4"/>
<feGaussianBlur stdDeviation="2"/>
<feComposite in2="hardAlpha" operator="out"/>
<feColorMatrix type="matrix" values="0 0 0 0 0 0 0 0 0 0 0 0 0 0 0 0 0 0 0.25 0"/>
<feBlend mode="normal" in2="BackgroundImageFix" result="effect1_dropShadow_9_88"/>
<feBlend mode="normal" in="SourceGraphic" in2="effect1_dropShadow_9_88" result="shape"/>
</filter>
<filter id="filter1_d_9_88" x="147.443" y="509.244" width="783.484" height="341.297" filterUnits="userSpaceOnUse" color-interpolation-filters="sRGB">
<feFlood flood-opacity="0" result="BackgroundImageFix"/>
<feColorMatrix in="SourceAlpha" type="matrix" values="0 0 0 0 0 0 0 0 0 0 0 0 0 0 0 0 0 0 127 0" result="hardAlpha"/>
<feOffset dy="4"/>
<feGaussianBlur stdDeviation="2"/>
<feComposite in2="hardAlpha" operator="out"/>
<feColorMatrix type="matrix" values="0 0 0 0 0 0 0 0 0 0 0 0 0 0 0 0 0 0 0.25 0"/>
<feBlend mode="normal" in2="BackgroundImageFix" result="effect1_dropShadow_9_88"/>
<feBlend mode="normal" in="SourceGraphic" in2="effect1_dropShadow_9_88" result="shape"/>
</filter>
<linearGradient id="paint0_linear_9_88" x1="652.889" y1="475" x2="974" y2="475" gradientUnits="userSpaceOnUse">
<stop stop-color="#91B7F0"/>
<stop offset="0.567257" stop-color="#0D6EFD"/>
</linearGradient>
<linearGradient id="paint1_linear_9_88" x1="189.844" y1="760.099" x2="936.806" y2="649.653" gradientUnits="userSpaceOnUse">
<stop offset="0.325" stop-color="#91B7EF"/>
<stop offset="0.943622" stop-color="#0D6EFD"/>
</linearGradient>
</defs>
</svg>
